<svg id="visual" viewBox="0 0 540 960" width="540" height="960" xmlns="http://www.w3.org/2000/svg" xmlns:xlink="http://www.w3.org/1999/xlink" version="1.1"><rect width="540" height="960" fill="#001829"></rect><g><g transform="translate(300 901)"><path d="M0 -144L124.7 -72L124.7 72L0 144L-124.7 72L-124.7 -72Z" fill="#297EA6"></path></g><g transform="translate(159 25)"><path d="M0 -75L65 -37.5L65 37.5L0 75L-65 37.5L-65 -37.5Z" fill="#297EA6"></path></g><g transform="translate(523 482)"><path d="M0 -84L72.7 -42L72.7 42L0 84L-72.7 42L-72.7 -42Z" fill="#297EA6"></path></g><g transform="translate(509 183)"><path d="M0 -80L69.3 -40L69.3 40L0 80L-69.3 40L-69.3 -40Z" fill="#297EA6"></path></g><g transform="translate(150 514)"><path d="M0 -122L105.7 -61L105.7 61L0 122L-105.7 61L-105.7 -61Z" fill="#297EA6"></path></g><g transform="translate(24 815)"><path d="M0 -94L81.4 -47L81.4 47L0 94L-81.4 47L-81.4 -47Z" fill="#297EA6"></path></g></g></svg>